<svg width="112" height="83" viewBox="0 0 112 83" fill="none" xmlns="http://www.w3.org/2000/svg">
<g filter="url(#filter0_d)">
<path d="M55.7611 49.4045C71.8447 49.4045 85.578 51.9543 85.578 62.1579C85.578 72.3573 71.9329 75 55.7611 75C39.6774 75 25.9442 72.4502 25.9442 62.2508C25.9442 52.0472 39.5893 49.4045 55.7611 49.4045ZM81.4769 43.2604C87.6258 43.1464 94.2364 43.9907 96.6792 44.5902C101.854 45.6076 105.258 47.6846 106.668 50.703C107.86 53.1811 107.86 56.056 106.668 58.5299C104.511 63.2116 97.5564 64.7145 94.8534 65.1029C94.2952 65.1873 93.846 64.7018 93.9048 64.1404C95.2857 51.1674 84.3016 45.0166 81.4601 43.6023C81.3384 43.539 81.3132 43.4419 81.3258 43.3828C81.3342 43.3406 81.3846 43.273 81.4769 43.2604ZM29.3684 43.2516L30.5262 43.2621C30.6186 43.2747 30.6648 43.3423 30.6731 43.3803C30.6857 43.4436 30.6606 43.5365 30.543 43.604C27.6973 45.0182 16.7133 51.1691 18.0941 64.1378C18.1529 64.7035 17.708 65.1848 17.1498 65.1046C14.4468 64.7162 7.49201 63.2133 5.33465 58.5316C4.13845 56.0535 4.13845 53.1828 5.33465 50.7047C6.74491 47.6863 10.1446 45.6093 15.3198 44.5876C17.7668 43.9924 24.3732 43.1481 30.5262 43.2621L29.3684 43.2516ZM55.7611 0C66.7116 0 75.4921 8.82313 75.4921 19.8415C75.4921 30.8556 66.7116 39.6872 55.7611 39.6872C44.8106 39.6872 36.03 30.8556 36.03 19.8415C36.03 8.82313 44.8106 0 55.7611 0ZM82.5472 3.30889C93.1241 3.30889 101.43 13.3183 98.6015 24.4675C96.6918 31.9735 89.779 36.9592 82.0771 36.7566C81.3048 36.7355 80.5451 36.6637 79.8106 36.5371C79.2776 36.4442 79.0089 35.8405 79.3111 35.393C82.2492 31.0448 83.9239 25.8142 83.9239 20.1995C83.9239 14.3399 82.0939 8.87717 78.9166 4.39806C78.8159 4.25874 78.7403 4.04344 78.8411 3.88302C78.925 3.75215 79.0803 3.68461 79.2272 3.65083C80.2975 3.43131 81.3972 3.30889 82.5472 3.30889ZM29.4497 3.30846C30.5997 3.30846 31.6994 3.43089 32.7738 3.65041C32.9166 3.68419 33.076 3.75595 33.16 3.8826C33.2565 4.04302 33.1852 4.25832 33.0844 4.39763C29.9072 8.87675 28.0772 14.3395 28.0772 20.1991C28.0772 25.8138 29.7519 31.0443 32.6899 35.3926C32.9921 35.8401 32.7235 36.4438 32.1904 36.5366C31.4517 36.6675 30.6962 36.735 29.9239 36.7562C22.2221 36.9588 15.3093 31.9731 13.3996 24.4671C10.5665 13.3179 18.8727 3.30846 29.4497 3.30846Z" fill="black"/>
</g>
<defs>
<filter id="filter0_d" x="0.4375" y="0" width="111.125" height="83" filterUnits="userSpaceOnUse" color-interpolation-filters="sRGB">
<feFlood flood-opacity="0" result="BackgroundImageFix"/>
<feColorMatrix in="SourceAlpha" type="matrix" values="0 0 0 0 0 0 0 0 0 0 0 0 0 0 0 0 0 0 127 0" result="hardAlpha"/>
<feOffset dy="4"/>
<feGaussianBlur stdDeviation="2"/>
<feComposite in2="hardAlpha" operator="out"/>
<feColorMatrix type="matrix" values="0 0 0 0 0 0 0 0 0 0 0 0 0 0 0 0 0 0 0.25 0"/>
<feBlend mode="normal" in2="BackgroundImageFix" result="effect1_dropShadow"/>
<feBlend mode="normal" in="SourceGraphic" in2="effect1_dropShadow" result="shape"/>
</filter>
</defs>
</svg>
