<svg width="51" height="56" viewBox="0 0 51 56" fill="none" xmlns="http://www.w3.org/2000/svg">
<path d="M23.5506 24.3474L25.0294 24.3427C31.1752 24.3427 36.7782 24.6105 40.4307 25.0138L42.702 25.3671C43.905 25.5637 45.2747 25.8221 45.9739 26.0916C48.5316 27.0779 50.114 29.0064 50.114 31.0705V31.2501C50.0542 32.5957 48.4672 35.4224 48.412 35.4224C45.8467 39.9708 38.1045 48.7459 32.585 52.7988L30.9279 53.9765C30.4788 54.2849 29.9473 54.6314 29.5329 54.8465C28.2541 55.565 26.6716 55.9243 25.0892 55.9243C23.3227 55.9243 21.6805 55.521 20.3372 54.7584L18.582 53.5484L18.2074 53.2773C12.8482 49.5999 4.08491 39.9979 1.40302 34.975L1.01237 34.2166C0.572693 33.3041 0.048275 32.0254 -2.28882e-05 31.2501C-2.28882e-05 30.2638 0.308186 29.3216 0.915405 28.4234C1.76643 27.3016 3.10968 26.4068 4.69213 25.912C5.78696 25.5968 9.07607 25.1019 9.13587 25.1019C12.4522 24.6483 17.6853 24.3852 23.5506 24.3474ZM25.0588 0C28.5595 0 31.3978 2.09121 31.3978 4.67047L30.0316 16.1636C30.0316 18.187 27.8051 19.8275 25.0588 19.8275C22.3079 19.8275 20.0861 18.187 20.0861 16.1636L18.7198 4.67047C18.7198 2.09121 21.5581 0 25.0588 0Z" fill="#EF4E37"/>
</svg>
