<svg width="27" height="25" viewBox="0 0 27 25" fill="none" xmlns="http://www.w3.org/2000/svg">
<path d="M11.7548 13.5525L11.7525 12.8385C11.7525 9.87136 11.8818 7.16626 12.0765 5.40284L12.2471 4.30626C12.342 3.72549 12.4668 3.0642 12.5969 2.72662C13.0731 1.49178 14.0042 0.727783 15.0007 0.727783H15.0874C15.737 0.756655 17.1018 1.52288 17.1018 1.54953C19.2977 2.78803 23.5343 6.52591 25.491 9.19071L26.0596 9.99074C26.2085 10.2076 26.3758 10.4642 26.4796 10.6642C26.8265 11.2816 27 12.0456 27 12.8096C27 13.6625 26.8053 14.4554 26.4371 15.1039L25.8529 15.9513L25.722 16.1322C23.9466 18.7195 19.3108 22.9504 16.8858 24.2452L16.5196 24.4338C16.079 24.6461 15.4617 24.8993 15.0874 24.9226C14.6112 24.9226 14.1563 24.7738 13.7227 24.4806C13.1811 24.0698 12.7491 23.4213 12.5102 22.6573C12.358 22.1287 12.1191 20.5407 12.1191 20.5118C11.9001 18.9107 11.7731 16.3842 11.7548 13.5525ZM0 12.8243C0 11.1342 1.00962 9.76386 2.25488 9.76386L7.80372 10.4235C8.78062 10.4235 9.57261 11.4984 9.57261 12.8243C9.57261 14.1524 8.78062 15.2251 7.80372 15.2251L2.25488 15.8847C1.00962 15.8847 0 14.5144 0 12.8243Z" fill="white"/>
</svg>
