<svg width="27" height="25" viewBox="0 0 27 25" fill="none" xmlns="http://www.w3.org/2000/svg">
<path d="M11.7548 12.8247L11.7525 12.1107C11.7525 9.14357 11.8818 6.43848 12.0765 4.67506L12.2471 3.57848C12.342 2.9977 12.4668 2.33642 12.5969 1.99884C13.0731 0.764 14.0042 0 15.0007 0H15.0874C15.737 0.0288721 17.1018 0.795093 17.1018 0.821745C19.2977 2.06025 23.5343 5.79813 25.491 8.46292L26.0596 9.26296C26.2085 9.47979 26.3758 9.73641 26.4796 9.93645C26.8265 10.5539 27 11.3179 27 12.0819C27 12.9347 26.8053 13.7276 26.4371 14.3761L25.8529 15.2235L25.722 15.4044C23.9466 17.9918 19.3108 22.2226 16.8858 23.5174L16.5196 23.706C16.079 23.9183 15.4617 24.1715 15.0874 24.1948C14.6112 24.1948 14.1563 24.046 13.7227 23.7529C13.1811 23.342 12.7491 22.6935 12.5102 21.9295C12.358 21.4009 12.1191 19.8129 12.1191 19.7841C11.9001 18.1829 11.7731 15.6564 11.7548 12.8247ZM0 12.0965C0 10.4064 1.00962 9.03608 2.25488 9.03608L7.80372 9.6957C8.78062 9.6957 9.57261 10.7706 9.57261 12.0965C9.57261 13.4246 8.78062 14.4974 7.80372 14.4974L2.25488 15.157C1.00962 15.157 0 13.7867 0 12.0965Z" fill="white"/>
</svg>
