<svg width="67" height="67" viewBox="0 0 67 67" fill="none" xmlns="http://www.w3.org/2000/svg">
<g filter="url(#filter0_d)">
<path d="M20.0076 49.8782C22.4542 49.8782 24.4587 51.9253 24.4587 54.4541C24.4587 56.9529 22.4542 59 20.0076 59C17.5316 59 15.5271 56.9529 15.5271 54.4541C15.5271 51.9253 17.5316 49.8782 20.0076 49.8782ZM53.1693 49.8782C55.6159 49.8782 57.6203 51.9253 57.6203 54.4541C57.6203 56.9529 55.6159 59 53.1693 59C50.6932 59 48.6888 56.9529 48.6888 54.4541C48.6888 51.9253 50.6932 49.8782 53.1693 49.8782ZM6.29577 0.000352494L6.59617 0.025778L13.6264 1.10655C14.6287 1.29019 15.3656 2.13012 15.454 3.15369L16.0141 9.89721C16.1025 10.8636 16.8689 11.5861 17.8122 11.5861H57.6209C59.419 11.5861 60.5981 12.2183 61.7772 13.6031C62.9562 14.988 63.1626 16.9749 62.8973 18.7782L60.097 38.5271C59.5664 42.3233 56.3829 45.1201 52.6393 45.1201H20.4798C16.5594 45.1201 13.3169 42.0524 12.9927 38.0785L10.2808 5.26104L5.82976 4.47831C4.65068 4.26757 3.82533 3.09348 4.03166 1.88928C4.238 0.657983 5.38761 -0.157863 6.59617 0.025778L6.29577 0.000352494ZM47.923 22.722H39.7578C38.5198 22.722 37.547 23.7154 37.547 24.9798C37.547 26.2141 38.5198 27.2377 39.7578 27.2377H47.923C49.161 27.2377 50.1337 26.2141 50.1337 24.9798C50.1337 23.7154 49.161 22.722 47.923 22.722Z" fill="black"/>
</g>
<defs>
<filter id="filter0_d" x="0" y="0" width="67" height="67" filterUnits="userSpaceOnUse" color-interpolation-filters="sRGB">
<feFlood flood-opacity="0" result="BackgroundImageFix"/>
<feColorMatrix in="SourceAlpha" type="matrix" values="0 0 0 0 0 0 0 0 0 0 0 0 0 0 0 0 0 0 127 0" result="hardAlpha"/>
<feOffset dy="4"/>
<feGaussianBlur stdDeviation="2"/>
<feComposite in2="hardAlpha" operator="out"/>
<feColorMatrix type="matrix" values="0 0 0 0 0 0 0 0 0 0 0 0 0 0 0 0 0 0 0.25 0"/>
<feBlend mode="normal" in2="BackgroundImageFix" result="effect1_dropShadow"/>
<feBlend mode="normal" in="SourceGraphic" in2="effect1_dropShadow" result="shape"/>
</filter>
</defs>
</svg>
