<svg width="64" height="71" viewBox="0 0 64 71" fill="none" xmlns="http://www.w3.org/2000/svg">
<g filter="url(#filter0_d)">
<path d="M43.3545 7.01631e-06C44.6753 -0.00309549 45.7197 1.02306 45.7228 2.39126L45.7258 4.72343C54.2958 5.39509 59.957 11.2348 59.9662 20.1903L60 46.4039C60.0123 56.1679 53.8781 62.1755 44.0456 62.1911L20.0281 62.2222C10.2571 62.2346 4.04612 56.0839 4.03383 46.2919L4.00002 20.3862C3.98775 11.3717 9.44921 5.54746 18.0192 4.76074L18.0161 2.42858C18.0131 1.06037 19.0267 0.0311096 20.3783 0.0311096C21.7298 0.028 22.7435 1.05415 22.7465 2.42236L22.7496 4.59904L40.9954 4.57417L40.9924 2.39748C40.9893 1.02928 42.003 0.00312362 43.3545 7.01631e-06ZM44.6077 44.1526H44.577C43.164 44.1868 42.0306 45.3715 42.0613 46.8019C42.0644 48.2323 43.204 49.4108 44.617 49.4419C46.0576 49.4388 47.2248 48.2541 47.2218 46.7926C47.2218 45.3311 46.0514 44.1526 44.6077 44.1526ZM19.297 44.1557C17.8841 44.2179 16.7783 45.4026 16.7813 46.833C16.8458 48.2634 18.0131 49.3828 19.4261 49.3175C20.8114 49.2553 21.9141 48.0706 21.8496 46.6402C21.8189 45.2409 20.6793 44.1526 19.297 44.1557ZM31.9524 44.1401C30.5394 44.2054 29.4367 45.3871 29.4367 46.8175C29.5012 48.2478 30.6684 49.3642 32.0814 49.302C33.4637 49.2367 34.5695 48.0551 34.505 46.6216C34.4742 45.2254 33.3347 44.137 31.9524 44.1401ZM19.2817 32.9613C17.8687 33.0235 16.766 34.2082 16.769 35.6386C16.8305 37.069 18.0008 38.1884 19.4138 38.1231C20.796 38.0609 21.8988 36.8762 21.8343 35.4458C21.8035 34.0465 20.667 32.9582 19.2817 32.9613ZM31.9401 32.8524C30.5271 32.9146 29.4213 34.0994 29.4244 35.5298C29.4858 36.9602 30.6561 38.0765 32.0691 38.0143C33.4514 37.949 34.5541 36.7674 34.4927 35.337C34.4589 33.9377 33.3224 32.8493 31.9401 32.8524ZM44.5955 32.868C43.1825 32.8991 42.0767 34.0496 42.0797 35.48V35.5142C42.1105 36.9446 43.2777 38.0299 44.6937 37.9988C46.076 37.9646 47.1787 36.7798 47.148 35.3494C47.0835 33.9812 45.9746 32.8649 44.5955 32.868ZM41.0016 9.36288L22.7558 9.38776L22.7588 11.9034C22.7588 13.2436 21.7482 14.3009 20.3967 14.3009C19.0452 14.304 18.0284 13.2498 18.0284 11.9096L18.0254 9.51525C12.0356 10.1154 8.72122 13.6354 8.73042 20.38L8.73351 21.3471L55.2388 21.2849V20.1966C55.1068 13.511 51.7525 10.0034 45.732 9.48104L45.7351 11.8754C45.7351 13.2125 44.6937 14.2729 43.3729 14.2729C42.0214 14.276 41.0047 13.2187 41.0047 11.8816L41.0016 9.36288Z" fill="black"/>
</g>
<defs>
<filter id="filter0_d" x="0" y="0" width="64" height="70.2222" filterUnits="userSpaceOnUse" color-interpolation-filters="sRGB">
<feFlood flood-opacity="0" result="BackgroundImageFix"/>
<feColorMatrix in="SourceAlpha" type="matrix" values="0 0 0 0 0 0 0 0 0 0 0 0 0 0 0 0 0 0 127 0" result="hardAlpha"/>
<feOffset dy="4"/>
<feGaussianBlur stdDeviation="2"/>
<feComposite in2="hardAlpha" operator="out"/>
<feColorMatrix type="matrix" values="0 0 0 0 0 0 0 0 0 0 0 0 0 0 0 0 0 0 0.25 0"/>
<feBlend mode="normal" in2="BackgroundImageFix" result="effect1_dropShadow"/>
<feBlend mode="normal" in="SourceGraphic" in2="effect1_dropShadow" result="shape"/>
</filter>
</defs>
</svg>
