<svg width="84" height="84" viewBox="0 0 84 84" fill="none" xmlns="http://www.w3.org/2000/svg">
<path fill-rule="evenodd" clip-rule="evenodd" d="M84 42C84 65.1945 65.1945 84 42 84C18.8055 84 0 65.1945 0 42C0 18.8055 18.8055 0 42 0C65.1945 0 84 18.8055 84 42ZM43.505 31.0065C39.4205 32.704 31.255 36.2215 19.012 41.5555C17.024 42.3465 15.981 43.12 15.8865 43.876C15.7255 45.157 17.3285 45.661 19.5055 46.3435C19.803 46.438 20.111 46.5325 20.426 46.6375C22.5715 47.334 25.4555 48.1495 26.9535 48.181C28.315 48.209 29.834 47.649 31.5105 46.501C42.9485 38.7765 48.853 34.874 49.224 34.79C49.4865 34.7305 49.8505 34.6535 50.0955 34.874C50.3405 35.091 50.316 35.504 50.2915 35.616C50.1305 36.2915 43.8515 42.133 40.5965 45.157C39.5815 46.0985 38.864 46.767 38.717 46.921C38.388 47.2605 38.052 47.586 37.73 47.8975C35.735 49.8155 34.244 51.2575 37.814 53.6095C39.529 54.74 40.901 55.6745 42.2695 56.6055C43.764 57.624 45.255 58.639 47.187 59.906C47.677 60.228 48.146 60.5605 48.6045 60.886C50.344 62.1285 51.9085 63.2415 53.8405 63.0665C54.9605 62.9615 56.1225 61.908 56.7105 58.7615C58.1 51.3205 60.837 35.2065 61.4705 28.5635C61.5091 28.0119 61.4856 27.4578 61.4005 26.9115C61.3496 26.4703 61.1347 26.0643 60.7985 25.774C60.298 25.3645 59.521 25.277 59.171 25.284C57.5925 25.312 55.1705 26.1555 43.505 31.0065V31.0065Z" fill="black"/>
</svg>
