<svg width="102" height="102" viewBox="0 0 102 102" fill="none" xmlns="http://www.w3.org/2000/svg">
<g opacity="0.84">
<path d="M51 6.375C26.3566 6.375 6.375 26.3566 6.375 51C6.375 75.6434 26.3566 95.625 51 95.625C75.6434 95.625 95.625 75.6434 95.625 51C95.625 26.3566 75.6434 6.375 51 6.375ZM72.4459 40.0131C72.4758 40.4813 72.4758 40.9693 72.4758 41.4475C72.4758 56.0701 61.3395 72.9141 40.9893 72.9141C34.7139 72.9141 28.8967 71.0912 23.9959 67.9535C24.8924 68.0531 25.749 68.093 26.6654 68.093C31.8451 68.093 36.6064 66.3398 40.4016 63.3715C35.5406 63.2719 31.4566 60.0844 30.0621 55.7016C31.7654 55.9506 33.2994 55.9506 35.0525 55.5023C32.5496 54.9938 30.2999 53.6345 28.6857 51.6553C27.0714 49.676 26.1922 47.199 26.1973 44.6449V44.5055C27.6615 45.3322 29.3848 45.8402 31.1877 45.91C29.6721 44.8999 28.4291 43.5314 27.569 41.9259C26.7089 40.3204 26.2583 38.5274 26.257 36.7061C26.257 34.6441 26.7949 32.7615 27.7611 31.1279C30.5393 34.5479 34.006 37.345 37.9359 39.3374C41.8658 41.3298 46.171 42.473 50.5717 42.6926C49.0078 35.1721 54.6258 29.0859 61.3793 29.0859C64.5668 29.0859 67.4355 30.4207 69.4576 32.5723C71.9578 32.1041 74.3484 31.1678 76.4801 29.9127C75.6533 32.4727 73.9201 34.6342 71.6191 35.9988C73.8504 35.7598 76.002 35.1422 77.9941 34.2756C76.49 36.4869 74.6074 38.4492 72.4459 40.0131V40.0131Z" fill="black"/>
</g>
</svg>
