<svg width="99" height="99" viewBox="0 0 99 99" fill="none" xmlns="http://www.w3.org/2000/svg">
<path d="M86.4065 34.2579C86.3649 31.1337 85.7801 28.0406 84.6782 25.1169C83.7226 22.6508 82.2631 20.4111 80.393 18.5409C78.5229 16.6708 76.2832 15.2113 73.817 14.2558C70.9309 13.1724 67.8819 12.5865 64.7998 12.5233C60.8315 12.3459 59.5734 12.2964 49.5002 12.2964C39.4269 12.2964 38.1358 12.2964 34.1964 12.5233C31.1157 12.587 28.0681 13.1728 25.1833 14.2558C22.7168 15.2107 20.4768 16.6699 18.6065 18.5401C16.7363 20.4103 15.2771 22.6504 14.3222 25.1169C13.2366 28.0008 12.6521 31.0491 12.5938 34.13C12.4164 38.1024 12.3628 39.3605 12.3628 49.4338C12.3628 59.507 12.3628 60.794 12.5938 64.7375C12.6557 67.823 13.2373 70.8673 14.3222 73.7589C15.2787 76.2247 16.739 78.4638 18.6098 80.3332C20.4807 82.2026 22.7209 83.6613 25.1874 84.6159C28.0643 85.7428 31.1125 86.3706 34.2005 86.4721C38.1729 86.6495 39.431 86.7031 49.5043 86.7031C59.5775 86.7031 60.8687 86.7031 64.808 86.4721C67.8901 86.4114 70.9393 85.827 73.8253 84.7438C76.2908 83.7871 78.5299 82.3272 80.3999 80.4572C82.2699 78.5872 83.7298 76.3481 84.6864 73.8826C85.7713 70.9951 86.3529 67.9509 86.4148 64.8613C86.5922 60.893 86.6458 59.6349 86.6458 49.5575C86.6375 39.4843 86.6375 38.2055 86.4065 34.2579V34.2579ZM49.4754 68.483C38.9402 68.483 30.4055 59.9484 30.4055 49.4131C30.4055 38.8779 38.9402 30.3433 49.4754 30.3433C54.5331 30.3433 59.3836 32.3524 62.9599 35.9287C66.5362 39.505 68.5453 44.3555 68.5453 49.4131C68.5453 54.4708 66.5362 59.3213 62.9599 62.8976C59.3836 66.4739 54.5331 68.483 49.4754 68.483V68.483ZM69.3043 34.0846C68.7202 34.0852 68.1417 33.9705 67.602 33.7473C67.0622 33.524 66.5718 33.1965 66.1588 32.7834C65.7457 32.3704 65.4182 31.88 65.1949 31.3402C64.9716 30.8005 64.857 30.222 64.8575 29.6379C64.8575 29.0542 64.9725 28.4762 65.1959 27.937C65.4192 27.3977 65.7466 26.9077 66.1594 26.495C66.5721 26.0823 67.0621 25.7549 67.6013 25.5315C68.1406 25.3082 68.7186 25.1932 69.3022 25.1932C69.8859 25.1932 70.4639 25.3082 71.0031 25.5315C71.5424 25.7549 72.0324 26.0823 72.4451 26.495C72.8578 26.9077 73.1852 27.3977 73.4086 27.937C73.632 28.4762 73.7469 29.0542 73.7469 29.6379C73.7469 32.0964 71.7587 34.0846 69.3043 34.0846Z" fill="black"/>
<path d="M49.4758 61.8009C56.3171 61.8009 61.8631 56.2549 61.8631 49.4135C61.8631 42.5721 56.3171 37.0261 49.4758 37.0261C42.6344 37.0261 37.0884 42.5721 37.0884 49.4135C37.0884 56.2549 42.6344 61.8009 49.4758 61.8009Z" fill="black"/>
</svg>
