<svg width="74" height="74" viewBox="0 0 74 74" fill="none" xmlns="http://www.w3.org/2000/svg">
<path d="M71.04 0H2.96C1.32275 0 0 1.32275 0 2.96V71.04C0 72.6773 1.32275 74 2.96 74H71.04C72.6773 74 74 72.6773 74 71.04V2.96C74 1.32275 72.6773 0 71.04 0ZM62.493 21.5988H56.5823C51.948 21.5988 51.0508 23.8002 51.0508 27.0377V34.1695H62.1138L60.6708 45.3342H51.0508V74H39.516V45.3435H29.8682V34.1695H39.516V25.937C39.516 16.3817 45.3528 11.174 53.8813 11.174C57.9698 11.174 61.4755 11.4793 62.5023 11.618V21.5988H62.493Z" fill="black"/>
</svg>
